<?xml version="1.0" encoding="utf-8"?>
<!-- Generator: Adobe Illustrator 28.3.0, SVG Export Plug-In . SVG Version: 6.00 Build 0)  -->
<svg version="1.1" id="Livello_1" xmlns="http://www.w3.org/2000/svg" xmlns:xlink="http://www.w3.org/1999/xlink" x="0px" y="0px"
	 viewBox="0 0 552.5 71.1" style="enable-background:new 0 0 552.5 71.1;" xml:space="preserve">
<style type="text/css">
	.st0{fill:#036297;}
	.st1{fill:#0DA6A4;}
</style>
<path class="st0" d="M29.9,65.6L1.5,16.4c-3-5.2-1.2-11.9,4-14.9l0,0c5.2-3,11.9-1.2,14.9,4l28.4,49.2c3,5.2,1.2,11.9-4,14.9l0,0
	C39.6,72.6,32.9,70.9,29.9,65.6z"/>
<path class="st1" d="M60,58.8V15c0-4.7,3.8-8.6,8.6-8.6h0c4.7,0,8.6,3.8,8.6,8.6v43.8c0,4.7-3.8,8.6-8.6,8.6h0
	C63.8,67.4,60,63.6,60,58.8z"/>
<path class="st0" d="M88.3,54.7l28.4-49.2c3-5.2,9.7-7,14.9-4l0,0c5.2,3,7,9.7,4,14.9l-28.4,49.2c-3,5.2-9.7,7-14.9,4l0,0
	C87.1,66.6,85.3,59.9,88.3,54.7z"/>
<path class="st0" d="M224.7,13.6l-15.2,48.8h-7.2l-11.5-35.1c-0.1-0.4-0.3-0.8-0.4-1.3c-0.1-0.5-0.2-0.9-0.3-1.5
	c-0.1,0.5-0.2,1-0.4,1.5c-0.1,0.5-0.2,0.9-0.4,1.3l-11.6,35.1h-7.2l-15.2-48.8h6.6c0.7,0,1.2,0.2,1.7,0.5c0.5,0.3,0.8,0.8,0.9,1.3
	l9.2,31.3c0.2,0.7,0.4,1.4,0.5,2.2c0.2,0.8,0.3,1.6,0.5,2.5c0.2-0.9,0.3-1.7,0.5-2.5c0.2-0.8,0.4-1.5,0.6-2.2l10.5-31.3
	c0.2-0.5,0.5-0.9,0.9-1.3c0.5-0.4,1-0.6,1.7-0.6h2.3c0.7,0,1.3,0.2,1.7,0.5c0.4,0.3,0.8,0.8,1,1.3l10.4,31.3
	c0.2,0.7,0.4,1.4,0.6,2.1c0.2,0.7,0.4,1.5,0.5,2.4c0.2-0.8,0.3-1.6,0.4-2.4c0.2-0.8,0.3-1.5,0.5-2.1l9.1-31.3
	c0.1-0.5,0.4-0.9,0.9-1.3c0.5-0.4,1.1-0.5,1.7-0.5H224.7z M237.2,27.8v34.6h-7.3V27.8H237.2z M238.4,17.4c0,0.7-0.1,1.3-0.4,1.9
	c-0.2,0.6-0.6,1.1-1.1,1.6c-0.5,0.4-1,0.8-1.6,1.1c-0.6,0.2-1.2,0.4-1.9,0.4c-0.7,0-1.3-0.1-1.9-0.4c-0.6-0.3-1.1-0.6-1.5-1.1
	c-0.4-0.5-0.8-1-1.1-1.6c-0.2-0.6-0.4-1.2-0.4-1.9c0-0.7,0.1-1.3,0.4-1.9c0.3-0.6,0.6-1.1,1.1-1.5c0.4-0.5,0.9-0.8,1.5-1.1
	c0.6-0.3,1.2-0.4,1.9-0.4c0.7,0,1.3,0.1,1.9,0.4c0.6,0.2,1.1,0.6,1.6,1.1c0.5,0.4,0.8,0.9,1.1,1.5C238.3,16.1,238.4,16.7,238.4,17.4
	z M253.6,12.2v29.1h1.6c0.5,0,0.9-0.1,1.2-0.2s0.6-0.4,1-0.8l9.7-11.1c0.3-0.5,0.7-0.8,1.1-1s0.9-0.3,1.6-0.3h6.6L264.7,41
	c-0.7,0.9-1.4,1.6-2.2,2.1c0.5,0.3,0.8,0.7,1.2,1.1c0.3,0.4,0.7,0.8,1,1.3l12.4,16.9h-6.5c-0.6,0-1.1-0.1-1.5-0.3
	c-0.4-0.2-0.8-0.6-1.1-1.1l-10-13.6c-0.3-0.5-0.7-0.8-1-1c-0.3-0.2-0.8-0.2-1.5-0.2h-1.8v16.1h-7.3V12.2H253.6z M289.3,27.8v34.6
	h-7.3V27.8H289.3z M290.6,17.4c0,0.7-0.1,1.3-0.4,1.9c-0.2,0.6-0.6,1.1-1.1,1.6c-0.5,0.4-1,0.8-1.6,1.1c-0.6,0.2-1.2,0.4-1.9,0.4
	c-0.7,0-1.3-0.1-1.9-0.4c-0.6-0.3-1.1-0.6-1.5-1.1c-0.4-0.5-0.8-1-1.1-1.6c-0.2-0.6-0.4-1.2-0.4-1.9c0-0.7,0.1-1.3,0.4-1.9
	c0.3-0.6,0.6-1.1,1.1-1.5c0.4-0.5,0.9-0.8,1.5-1.1c0.6-0.3,1.2-0.4,1.9-0.4c0.7,0,1.3,0.1,1.9,0.4c0.6,0.2,1.1,0.6,1.6,1.1
	c0.5,0.4,0.8,0.9,1.1,1.5C290.4,16.1,290.6,16.7,290.6,17.4z"/>
<path class="st1" d="M305.8,31.9c1.4-1.4,3-2.5,4.7-3.4c1.7-0.9,3.7-1.3,5.9-1.3c1.9,0,3.6,0.3,5,0.9c1.4,0.6,2.7,1.5,3.6,2.7
	c1,1.2,1.7,2.5,2.2,4.2c0.5,1.6,0.7,3.4,0.7,5.3v22h-7.3v-22c0-2.3-0.5-4.1-1.6-5.4c-1.1-1.3-2.7-1.9-4.9-1.9
	c-1.6,0-3.1,0.4-4.5,1.1c-1.4,0.7-2.7,1.8-3.9,3.1v25.2h-7.3V12.2h7.3V31.9z M359.2,41.2c0-1.2-0.2-2.4-0.5-3.4
	c-0.3-1.1-0.8-2-1.5-2.7c-0.7-0.8-1.5-1.4-2.5-1.8c-1-0.5-2.1-0.7-3.5-0.7c-2.6,0-4.7,0.8-6.2,2.3s-2.5,3.6-2.9,6.4H359.2z
	 M341.8,45.7c0.1,2,0.4,3.7,0.9,5.1c0.5,1.4,1.2,2.6,2.1,3.6c0.9,0.9,1.9,1.7,3.1,2.1c1.2,0.5,2.6,0.7,4.1,0.7
	c1.4,0,2.7-0.2,3.7-0.5c1-0.3,1.9-0.7,2.7-1.1c0.8-0.4,1.4-0.8,2-1.1c0.5-0.3,1-0.5,1.5-0.5c0.6,0,1,0.2,1.4,0.7l2.1,2.7
	c-0.9,1-1.8,1.9-2.9,2.6c-1.1,0.7-2.2,1.3-3.5,1.7c-1.2,0.4-2.5,0.7-3.8,0.9c-1.3,0.2-2.5,0.3-3.8,0.3c-2.4,0-4.6-0.4-6.7-1.2
	c-2-0.8-3.8-2-5.3-3.6c-1.5-1.6-2.7-3.5-3.5-5.8c-0.8-2.3-1.3-5-1.3-8c0-2.4,0.4-4.6,1.1-6.7c0.8-2.1,1.9-3.9,3.3-5.4
	c1.4-1.5,3.1-2.7,5.2-3.6c2-0.9,4.3-1.4,6.9-1.4c2.1,0,4.1,0.4,5.9,1.1c1.8,0.7,3.4,1.7,4.7,3c1.3,1.3,2.3,3,3.1,4.9
	c0.7,1.9,1.1,4.1,1.1,6.6c0,1.1-0.1,1.9-0.4,2.3c-0.2,0.4-0.7,0.6-1.4,0.6H341.8z M379.4,34.2c1.1-2.2,2.4-3.9,3.9-5.2
	c1.5-1.3,3.4-1.9,5.5-1.9c0.7,0,1.4,0.1,2.1,0.3c0.7,0.2,1.2,0.4,1.8,0.7l-0.5,5.5c-0.1,0.4-0.2,0.7-0.4,0.8
	c-0.2,0.1-0.4,0.2-0.7,0.2c-0.3,0-0.8-0.1-1.5-0.2c-0.6-0.1-1.3-0.2-2-0.2c-1,0-1.9,0.1-2.7,0.4c-0.8,0.3-1.5,0.7-2.1,1.3
	c-0.6,0.6-1.2,1.3-1.6,2.1c-0.5,0.8-0.9,1.7-1.3,2.8v21.5h-7.3V27.8h4.2c0.8,0,1.3,0.1,1.6,0.4c0.3,0.3,0.5,0.8,0.6,1.5L379.4,34.2z
	 M404.8,53.7c1,1.3,2.1,2.2,3.3,2.8c1.2,0.5,2.5,0.8,4,0.8c2.9,0,5.1-1,6.7-3.1s2.4-5.3,2.4-9.7c0-4-0.7-6.9-2.1-8.7
	c-1.4-1.8-3.4-2.7-5.9-2.7c-1.8,0-3.3,0.4-4.7,1.2c-1.3,0.8-2.5,1.9-3.7,3.4V53.7z M404.8,32.4c1.4-1.6,3-2.8,4.8-3.7
	c1.8-0.9,3.8-1.4,6-1.4c2,0,3.8,0.4,5.4,1.2c1.6,0.8,3,1.9,4.1,3.4c1.1,1.5,2,3.3,2.6,5.4c0.6,2.1,0.9,4.4,0.9,7.1
	c0,2.8-0.4,5.4-1.1,7.7c-0.7,2.3-1.7,4.2-2.9,5.9c-1.3,1.6-2.8,2.9-4.7,3.8c-1.8,0.9-3.9,1.3-6.1,1.3c-1.1,0-2.1-0.1-3-0.3
	c-0.9-0.2-1.7-0.5-2.5-0.9s-1.5-0.9-2.1-1.5c-0.6-0.6-1.2-1.2-1.8-1.9l-0.3,2.7c-0.1,0.5-0.3,0.9-0.6,1.1s-0.7,0.3-1.2,0.3h-4.7
	V12.2h7.3V32.4z M454.3,47.3c-2.6,0.1-4.8,0.3-6.6,0.6c-1.8,0.3-3.2,0.7-4.3,1.3c-1.1,0.5-1.9,1.1-2.4,1.8c-0.5,0.7-0.7,1.5-0.7,2.3
	c0,0.8,0.1,1.5,0.4,2.1c0.3,0.6,0.6,1,1.1,1.4c0.5,0.4,1,0.6,1.6,0.8c0.6,0.2,1.3,0.2,2.1,0.2c1.9,0,3.5-0.4,4.9-1.1
	c1.4-0.7,2.7-1.8,4-3.1V47.3z M435,32.7c3.9-3.6,8.6-5.5,14-5.5c2,0,3.8,0.3,5.3,1c1.6,0.6,2.9,1.5,3.9,2.7c1.1,1.2,1.9,2.6,2.4,4.2
	c0.6,1.6,0.8,3.4,0.8,5.4v22h-3.3c-0.7,0-1.2-0.1-1.6-0.3c-0.4-0.2-0.7-0.7-0.9-1.3l-0.7-2.8c-0.9,0.8-1.8,1.5-2.6,2.1
	c-0.9,0.6-1.7,1.1-2.7,1.6c-0.9,0.4-1.9,0.7-3,0.9c-1,0.2-2.2,0.3-3.5,0.3c-1.4,0-2.7-0.2-3.9-0.6c-1.2-0.4-2.2-1-3.1-1.7
	c-0.9-0.8-1.6-1.8-2.1-2.9c-0.5-1.2-0.7-2.5-0.7-4.1c0-1.3,0.4-2.6,1.1-3.9c0.7-1.3,1.9-2.4,3.5-3.4c1.6-1,3.8-1.9,6.5-2.5
	c2.7-0.7,6-1,9.9-1.1v-2.3c0-2.5-0.5-4.3-1.6-5.6c-1.1-1.2-2.6-1.8-4.7-1.8c-1.4,0-2.6,0.2-3.5,0.5c-0.9,0.3-1.8,0.7-2.5,1.1
	c-0.7,0.4-1.3,0.8-1.9,1.2c-0.5,0.3-1.1,0.5-1.7,0.5c-0.5,0-0.9-0.1-1.3-0.4c-0.3-0.3-0.6-0.6-0.8-1L435,32.7z M477.4,12.2v50.2
	h-7.3V12.2H477.4z M493.9,27.8v34.6h-7.3V27.8H493.9z M495.2,17.4c0,0.7-0.1,1.3-0.4,1.9c-0.2,0.6-0.6,1.1-1,1.6
	c-0.5,0.4-1,0.8-1.6,1.1c-0.6,0.2-1.2,0.4-1.9,0.4c-0.7,0-1.3-0.1-1.9-0.4c-0.6-0.3-1.1-0.6-1.5-1.1c-0.4-0.5-0.8-1-1.1-1.6
	c-0.2-0.6-0.4-1.2-0.4-1.9c0-0.7,0.1-1.3,0.4-1.9c0.3-0.6,0.6-1.1,1.1-1.5c0.4-0.5,0.9-0.8,1.5-1.1c0.6-0.3,1.2-0.4,1.9-0.4
	c0.7,0,1.3,0.1,1.9,0.4c0.6,0.2,1.1,0.6,1.6,1.1c0.5,0.4,0.8,0.9,1,1.5C495,16.1,495.2,16.7,495.2,17.4z M523.7,34.1
	c-0.2,0.3-0.4,0.5-0.6,0.7s-0.5,0.2-0.8,0.2c-0.4,0-0.8-0.1-1.3-0.3c-0.5-0.2-1-0.5-1.6-0.8c-0.6-0.3-1.3-0.6-2.2-0.8
	c-0.8-0.2-1.8-0.4-2.9-0.4c-0.9,0-1.7,0.1-2.5,0.3c-0.7,0.2-1.3,0.5-1.9,0.9c-0.5,0.4-0.9,0.8-1.2,1.4c-0.3,0.5-0.4,1.1-0.4,1.7
	c0,0.8,0.2,1.5,0.7,2c0.5,0.5,1.2,1,2,1.4c0.8,0.4,1.7,0.7,2.8,1.1c1,0.3,2.1,0.7,3.2,1c1.1,0.4,2.1,0.8,3.2,1.3
	c1,0.5,2,1.1,2.8,1.8c0.8,0.7,1.5,1.5,2,2.5c0.5,1,0.7,2.2,0.7,3.6c0,1.6-0.3,3.1-0.9,4.5c-0.6,1.4-1.4,2.6-2.6,3.6
	c-1.1,1-2.5,1.8-4.2,2.4c-1.7,0.6-3.6,0.8-5.8,0.8c-1.2,0-2.4-0.1-3.5-0.3c-1.1-0.2-2.2-0.5-3.2-0.8c-1-0.4-1.9-0.8-2.8-1.4
	c-0.9-0.5-1.6-1.1-2.3-1.7l1.7-2.8c0.2-0.3,0.5-0.6,0.7-0.8c0.3-0.2,0.7-0.3,1.2-0.3c0.5,0,0.9,0.2,1.4,0.5c0.5,0.3,1,0.6,1.6,1
	c0.6,0.4,1.4,0.7,2.3,1c0.9,0.3,2,0.4,3.3,0.4c1.1,0,2-0.1,2.8-0.4c0.8-0.3,1.4-0.6,2-1.1c0.5-0.5,0.9-1,1.2-1.5
	c0.2-0.6,0.4-1.2,0.4-1.9c0-0.9-0.2-1.6-0.7-2.2c-0.5-0.6-1.2-1.1-2-1.5c-0.8-0.4-1.7-0.8-2.8-1.1c-1-0.3-2.1-0.7-3.2-1
	c-1.1-0.4-2.2-0.8-3.2-1.3c-1-0.5-2-1.1-2.8-1.8c-0.8-0.7-1.5-1.6-2-2.7c-0.5-1.1-0.7-2.4-0.7-3.9c0-1.4,0.3-2.7,0.8-3.9
	c0.6-1.2,1.4-2.3,2.4-3.3c1.1-0.9,2.4-1.7,4-2.2c1.6-0.6,3.4-0.8,5.5-0.8c2.3,0,4.4,0.4,6.3,1.1c1.9,0.7,3.5,1.8,4.8,3.1L523.7,34.1
	z M543.8,63c-2.9,0-5.1-0.8-6.6-2.4c-1.5-1.6-2.3-3.9-2.3-6.8V33.6H531c-0.4,0-0.8-0.1-1-0.4c-0.3-0.3-0.4-0.7-0.4-1.2v-2.9l5.6-0.8
	l1.6-10c0.1-0.4,0.3-0.7,0.6-0.9c0.3-0.2,0.6-0.4,1.1-0.4h3.7v11.4h9.6v5.3h-9.6v19.6c0,1.2,0.3,2.2,0.9,2.8c0.6,0.7,1.4,1,2.4,1
	c0.6,0,1.1-0.1,1.5-0.2c0.4-0.2,0.8-0.3,1-0.5c0.3-0.2,0.5-0.3,0.7-0.5c0.2-0.2,0.4-0.2,0.6-0.2c0.4,0,0.7,0.2,1,0.7l2.2,3.6
	c-1.1,1-2.5,1.8-4,2.3C547,62.7,545.4,63,543.8,63z"/>
</svg>
