<?xml version="1.0" encoding="UTF-8"?>
<svg id="Livello_1" data-name="Livello 1" xmlns="http://www.w3.org/2000/svg" version="1.1" viewBox="0 0 393.7 165.8">
  <defs>
    <style>
      .cls-1 {
        fill: #6fdd54;
      }

      .cls-1, .cls-2, .cls-3 {
        stroke-width: 0px;
      }

      .cls-2 {
        fill: #2d918d;
      }

      .cls-3 {
        fill: #fff;
      }
    </style>
  </defs>
  <g id="ICTNyB">
    <g>
      <path class="cls-1" d="M57.4,77.6c6-22.2,12-44.4,18.1-66.6C77.3,4.5,84.1,0,91.4,0c50,.2,100,.4,149.9.6,47.1.2,94.2.4,141.3.6,1.9,0,3.7,0,5.5.7,3.7,1.4,6,4.8,5.5,8.8-.1,1.1-.4,2.2-.7,3.2-5.6,20.7-11.3,41.4-16.9,62.1-2.2,8.2-8.3,12.9-16.8,12.9-19,0-37.9,0-56.9-.2-.5,0-1,0-1.5,0-3.5,0-6.9-.3-10.4-.3-11.6,0-23.2,0-34.8,0-9.1,0-18.3-.2-27.4,0-9.2,0-18.5-.3-27.7-.3-13.1,0-26.2,0-39.4,0-16,0-32-.4-48-.3-15.1,0-30.2,0-45.3,0s-10.3-2.8-10.4-10.1Z"/>
      <path class="cls-2" d="M57.4,77.6c0,7.3,3.1,10.1,10.6,10.1,15.1,0,30.2.2,45.3,0,16,0,32,.2,48,.3,13.1,0,26.2,0,39.4,0,9.2,0,18.5.5,27.7.3,9.1,0,18.3,0,27.4,0h34.8c3.5,0,6.9.2,10.4.3-2.6,9.6-5.1,19.2-7.8,28.9-3.1,11.6-6.3,23.2-9.5,34.8-2.5,9-8.3,13.3-17.7,13.3-85.1-.1-170.1-.2-255.2-.4C4.3,165.4.4,162.5,0,157.3c-.1-1.5.2-2.9.6-4.3,5.7-21,11.5-42.1,17.2-63.1,2.1-7.5,8.2-12.3,16.2-12.3h23.4Z"/>
    </g>
  </g>
  <g>
    <path class="cls-3" d="M110.1,34.3c.5-1.9,1.3-3.7,2.2-5.4.5-1,1.1-1.8,1.8-2.5.6-.7,1.3-1.3,1.9-1.9,1.8-1.6,3.8-2.8,5.9-3.7,2.1-.9,4.3-1.3,6.5-1.3h17.6c.4,0,.6.2.5.7l-2,7.3c-.1.4-.4.7-.8.7h-17.2c-1.8.4-3.3,1.3-4.6,2.7s-2.2,3.3-2.8,5.6l-4.5,16.8c-.3,1.6-.1,2.8.5,3.7.6.9,1.7,1.4,3.2,1.6h17.2c.4,0,.6.2.5.7l-2,7.3c-.1.4-.4.7-.8.7h-17c-1.3,0-2.5-.1-3.4-.4-1-.2-1.8-.5-2.4-.8-1.5-.6-2.8-1.6-3.7-3-1-1.4-1.6-3.1-1.9-5,0-.5-.1-1.1-.1-2,0-.8.2-1.8.5-3l5-18.6Z"/>
    <path class="cls-3" d="M145.5,43.2c.7-2.6,1.3-4.9,1.9-6.8.6-1.9,1.1-3.5,1.6-4.7.8-1.7,1.6-3.3,2.4-4.7.8-1.4,1.6-2.5,2.5-3.4,1.2-1.2,2.6-2.2,4.1-3,1.6-.9,3.1-1.5,4.7-1.8,1.1-.2,2.6-.4,4.3-.4,1.7,0,3.8,0,6.2,0s4.4,0,6.2,0c1.7,0,3.1.2,4.1.4,1.4.4,2.7,1,3.8,1.8,1.1.9,1.9,1.9,2.5,3,.4.9.7,2,.7,3.4,0,1.4,0,2.9-.1,4.7-.1,1.2-.4,2.7-.8,4.7-.5,1.9-1,4.2-1.8,6.8v.4c-.8,2.6-1.4,4.9-2,6.8-.6,1.9-1.1,3.5-1.6,4.7-.8,1.7-1.6,3.3-2.4,4.7-.8,1.4-1.6,2.5-2.5,3.4-1.2,1.2-2.6,2.2-4.1,3-1.6.9-3.1,1.5-4.7,1.8-1.1.2-2.6.4-4.3.4-1.7,0-3.8,0-6.2,0s-4.4,0-6.2,0c-1.7,0-3.1-.2-4.1-.4-1.4-.4-2.7-1-3.8-1.8-1.1-.9-1.9-1.9-2.5-3-.4-.9-.7-2-.7-3.4,0-1.4,0-2.9.1-4.7,0-1.2.4-2.7.8-4.7.5-1.9,1-4.2,1.8-6.8v-.4ZM166.9,27.7c-1.3,0-2.4.2-3.3.4-1.7.4-3,1.2-4,2.4-1,1.2-1.8,2.9-2.4,5.3l-4.1,15.3c-.6,2.3-.8,4.1-.4,5.3.4,1.2,1.3,2,2.8,2.4.8.2,1.9.4,3.1.4,1.2,0,2.5.1,3.9.1s2.7,0,3.9-.1c1.3,0,2.4-.2,3.3-.4,1.7-.4,3-1.2,4-2.4,1-1.2,1.8-2.9,2.4-5.3l4.1-15.3c.6-2.3.8-4.1.4-5.3-.4-1.2-1.3-2-2.8-2.4-.8-.2-1.9-.4-3.1-.4-1.2,0-2.5,0-3.9,0s-2.7,0-3.9,0Z"/>
    <path class="cls-3" d="M197.2,27c.4-1.5,1-2.7,1.8-3.7.8-1,1.7-1.8,2.8-2.3,1-.6,2.2-1,3.4-1.2,1.2-.2,2.4-.4,3.6-.4,1.9,0,3.4.1,4.6.3s2,.7,2.6,1.5c.6.8.9,1.9.9,3.5s0,3.7-.4,6.3l-2.3,22c0,.2,0,.5,0,.9,0,.4,0,.8,0,1.2,0,.4,0,.8,0,1.1,0,.3,0,.5.2.5s.2-.2.5-.5c.2-.3.4-.7.6-1.1.2-.4.4-.8.6-1.2s.3-.6.3-.7l9.5-22.5c1.1-2.6,2.1-4.6,2.9-6.1.9-1.5,1.8-2.7,2.8-3.4,1-.8,2.1-1.2,3.4-1.5,1.3-.2,2.9-.3,4.9-.3,2.8,0,4.9.6,6.4,1.7,1.5,1.1,1.9,3,1.1,5.7l-10.6,39.6c-.1.4-.4.7-.8.7h-8.3c-.4,0-.6-.2-.5-.7l9.7-36.2c0,0,0-.3,0-.6,0-.3,0-.4-.3-.4s-.4,0-.6.2c-.2.2-.3.3-.4.5,0,0-.2.3-.3.6-.2.3-.3.6-.5,1-.2.4-.3.7-.5,1.1-.2.4-.3.6-.4.8-.6,1.1-1.1,2.3-1.7,3.5-.6,1.2-1.3,2.8-2.3,4.9-1,2-2.2,4.6-3.7,7.7-1.5,3.1-3.4,7.1-5.8,12-.3.7-.7,1.4-1.2,2.1-.5.7-1.1,1.3-1.8,1.8-.7.5-1.6,1-2.6,1.3-1,.3-2.2.5-3.7.5s-2.3-.2-3-.5c-.7-.3-1.3-.7-1.7-1.2-.4-.5-.7-1-.8-1.6-.1-.6-.2-1.1-.2-1.7l1.8-31.6c0,0,0-.3,0-.8,0-.4,0-.7-.2-.7h-.3c-.2,0-.3.2-.4.5l-9.9,36.8c-.1.4-.4.7-.8.7h-8.3c-.4,0-.6-.2-.5-.7l10.6-39.4Z"/>
    <path class="cls-3" d="M255.2,19.5h8.3c.4,0,.6.2.5.7l-12.4,46.3c-.1.4-.4.7-.8.7h-8.3c-.4,0-.6-.2-.5-.7l12.4-46.3c.1-.4.4-.7.8-.7Z"/>
    <path class="cls-3" d="M267.1,29.2c.5-1.7,1-3.2,1.7-4.5.6-1.2,1.4-2.2,2.4-3,1-.8,2.1-1.4,3.5-1.7,1.4-.4,3-.6,4.9-.6,2.8,0,4.7.4,5.7,1.3,1,.9,1.6,2.1,1.6,3.7v32.8c.1.4.3.7.6.7s.5-.2.6-.7l10-37.1c.1-.4.4-.7.8-.7h8.3c.4,0,.6.2.5.7l-10.5,39.3c-.2.9-.7,1.8-1.2,2.7-.6.9-1.3,1.7-2.1,2.5-.8.8-1.7,1.4-2.6,1.8s-1.9.7-2.8.7h-6.1c-.5,0-1.1-.1-1.6-.4-.5-.3-1-.7-1.4-1.1-.4-.5-.7-1-1-1.6-.2-.6-.4-1.2-.4-1.8V29.2c-.1-.4-.3-.6-.6-.6s-.5.2-.6.6l-10,37.3c-.1.4-.4.7-.8.7h-8.3c-.4,0-.6-.2-.5-.7l10-37.2Z"/>
    <path class="cls-3" d="M347.5,19.5c.4,0,.6.2.5.7l-2,7.3c-.1.4-.4.7-.8.7h-20.3c-.4,0-.9.2-1.5.5-.6.3-1.2.8-1.8,1.3-.6.5-1.1,1-1.6,1.6-.5.6-.8,1-.9,1.4l-4.6,17.3c-.7,2.4-.6,4.4,0,5.9.7,1.5,1.9,2.3,3.6,2.3h8.1c.8,0,1.6-.2,2.4-.5.7-.3,1.4-.7,1.9-1.1.5-.4,1-.9,1.3-1.4.3-.5.6-1,.7-1.4l1.7-6.2c.1-.4,0-.7-.5-.7h-10.8c-.4,0-.6-.2-.5-.7l2-7.3c.1-.4.4-.7.8-.7h20.7c.4,0,.6.2.5.7l-4,15c-.3,1-.8,2.3-1.7,3.8-.9,1.5-2,2.9-3.4,4.3-1.4,1.4-3.1,2.5-5.2,3.5-2,1-4.3,1.5-6.9,1.5h-11.6c-2.1,0-3.9-.5-5.3-1.5-1.4-1-2.4-2.2-3.2-3.7-.7-1.5-1.1-3.1-1.2-4.9,0-1.8,0-3.5.5-5.2l5.1-18.9c.4-1.5,1.1-3,2.2-4.6,1.1-1.6,2.3-3.1,3.8-4.4,1.5-1.3,3-2.4,4.7-3.3,1.7-.8,3.4-1.3,5.1-1.3h22.4Z"/>
  </g>
  <g>
    <path class="cls-3" d="M77.9,127.4c-1.4,0-2.8-.2-4.3-.5-1.5-.4-2.7-1-3.7-2.1-.6-.6-1-1.4-1.3-2.2-.3-.9-.5-1.8-.5-2.8,0-1,0-2,0-3.1.1-1,.3-2.1.6-3.1.1-.4.2-.9.3-1.3.1-.4.3-.8.5-1.2,1.3-3.9,3.6-6.8,6.7-9,.9-.6,2-1.2,3.3-1.8,1.3-.6,2.4-.9,3.5-.9h22c.4,0,.6.2.5.7l-2,7.3c-.1.4-.4.7-.8.7h-19.2c-.6,0-1.3.3-1.9.8-.7.6-1.2,1.1-1.5,1.6-.3.4-.6.9-.8,1.3-.2.4-.3.9-.4,1.3-.2.7-.3,1.4-.5,2.2-.1.8,0,1.4.4,2,.4.5,1,.8,1.8.9.8,0,1.8.1,2.8.1h7.4c1.4,0,2.8.2,4.2.6,1.4.4,2.6,1.1,3.6,2.2.6.6,1,1.4,1.3,2.3.3.9.4,1.8.5,2.9,0,1,0,2.1-.2,3.2-.2,1.1-.4,2.2-.7,3.2-.1.5-.3,1-.4,1.4-.1.4-.3.8-.4,1.1-1.4,4-3.7,7.1-6.7,9.3-.9.6-2,1.2-3.2,1.8s-2.4.9-3.3.9h-24.2c-.4,0-.6-.2-.5-.7l2-7.3c.1-.4.4-.7.8-.7h21.4c.7,0,1.3-.3,2-1,.7-.6,1.2-1.2,1.5-1.8.4-.5.6-1,.8-1.4.2-.4.3-.9.4-1.4.2-.7.3-1.5.5-2.2.1-.8,0-1.5-.4-2.1-.3-.5-.9-.8-1.6-1-.8-.2-1.7-.3-2.8-.3h-7.5Z"/>
    <path class="cls-3" d="M106.7,123.3c.7-2.6,1.3-4.9,1.9-6.8.6-1.9,1.1-3.5,1.6-4.7.8-1.7,1.6-3.3,2.4-4.7.8-1.4,1.6-2.5,2.5-3.4,1.2-1.2,2.6-2.2,4.1-3,1.6-.9,3.1-1.5,4.7-1.8,1.1-.2,2.6-.4,4.3-.4,1.7,0,3.8,0,6.2,0s4.4,0,6.2,0c1.7,0,3.1.2,4.1.4,1.4.4,2.7,1,3.8,1.8,1.1.9,1.9,1.9,2.5,3,.4.9.7,2,.7,3.4,0,1.4,0,2.9-.1,4.7,0,1.2-.4,2.7-.8,4.7-.5,1.9-1,4.2-1.8,6.8v.4c-.8,2.6-1.4,4.9-2,6.8-.6,1.9-1.1,3.5-1.6,4.7-.8,1.7-1.6,3.3-2.4,4.7-.8,1.4-1.6,2.5-2.5,3.4-1.2,1.2-2.6,2.2-4.1,3-1.6.9-3.1,1.5-4.7,1.8-1.1.2-2.6.4-4.3.4-1.7,0-3.8,0-6.2,0s-4.4,0-6.2,0c-1.7,0-3.1-.2-4.1-.4-1.4-.4-2.7-1-3.8-1.8-1.1-.9-1.9-1.9-2.5-3-.4-.9-.7-2-.7-3.4s0-2.9.1-4.7c0-1.2.4-2.7.8-4.7.5-1.9,1-4.2,1.8-6.8v-.4ZM128,107.8c-1.3,0-2.4.2-3.3.4-1.7.4-3,1.2-4,2.4-1,1.2-1.8,2.9-2.4,5.3l-4.1,15.3c-.6,2.3-.8,4.1-.4,5.3.4,1.2,1.3,2,2.8,2.4.8.2,1.9.4,3.1.4,1.2,0,2.5.1,3.9.1s2.7,0,3.9-.1c1.3,0,2.4-.2,3.3-.4,1.7-.4,3-1.2,4-2.4,1-1.2,1.8-2.9,2.4-5.3l4.1-15.3c.6-2.3.8-4.1.4-5.3-.4-1.2-1.3-2-2.8-2.4-.8-.2-1.9-.4-3.1-.4-1.2,0-2.5,0-3.9,0s-2.7,0-3.9,0Z"/>
    <path class="cls-3" d="M153.7,123.3c.7-2.6,1.3-4.9,1.9-6.8.6-1.9,1.1-3.5,1.6-4.7.8-1.7,1.6-3.3,2.4-4.7.8-1.4,1.6-2.5,2.5-3.4,1.2-1.2,2.6-2.2,4.1-3s3.1-1.5,4.7-1.8c1.1-.2,2.6-.4,4.3-.4,1.7,0,3.8,0,6.2,0s4.4,0,6.2,0c1.7,0,3.1.2,4.1.4,1.4.4,2.7,1,3.8,1.8,1.1.9,1.9,1.9,2.5,3,.4.9.7,2,.7,3.4,0,1.4,0,2.9-.1,4.7-.1,1.2-.4,2.7-.8,4.7-.5,1.9-1,4.2-1.8,6.8v.4c-.8,2.6-1.4,4.9-2,6.8-.6,1.9-1.1,3.5-1.6,4.7-.8,1.7-1.6,3.3-2.4,4.7-.8,1.4-1.6,2.5-2.5,3.4-1.2,1.2-2.6,2.2-4.1,3-1.6.9-3.1,1.5-4.7,1.8-1.1.2-2.6.4-4.3.4-1.7,0-3.8,0-6.2,0s-4.4,0-6.2,0c-1.7,0-3.1-.2-4.1-.4-1.4-.4-2.7-1-3.8-1.8-1.1-.9-1.9-1.9-2.5-3-.4-.9-.7-2-.7-3.4s0-2.9.1-4.7c0-1.2.4-2.7.8-4.7.5-1.9,1-4.2,1.8-6.8v-.4ZM175.1,107.8c-1.3,0-2.4.2-3.3.4-1.7.4-3,1.2-4,2.4-1,1.2-1.8,2.9-2.4,5.3l-4.1,15.3c-.6,2.3-.8,4.1-.4,5.3.4,1.2,1.3,2,2.8,2.4.8.2,1.9.4,3.1.4s2.5.1,3.9.1,2.7,0,3.9-.1c1.3,0,2.4-.2,3.3-.4,1.7-.4,3-1.2,4-2.4,1-1.2,1.8-2.9,2.4-5.3l4.1-15.3c.6-2.3.8-4.1.4-5.3-.4-1.2-1.3-2-2.8-2.4-.8-.2-1.9-.4-3.1-.4-1.2,0-2.5,0-3.9,0s-2.7,0-3.9,0Z"/>
    <path class="cls-3" d="M204.8,109.3c.5-1.7,1-3.2,1.7-4.5.6-1.2,1.4-2.2,2.4-3,1-.8,2.1-1.4,3.5-1.7,1.4-.4,3-.6,4.9-.6,2.8,0,4.7.4,5.7,1.3,1,.9,1.6,2.1,1.6,3.7v32.8c.1.4.3.7.6.7s.5-.2.6-.7l10-37.1c.1-.4.4-.7.8-.7h8.3c.4,0,.6.2.5.7l-10.5,39.3c-.2.9-.7,1.8-1.2,2.7-.6.9-1.3,1.7-2.1,2.5-.8.8-1.7,1.4-2.6,1.8s-1.9.7-2.8.7h-6.1c-.5,0-1.1-.1-1.6-.4-.5-.3-1-.7-1.4-1.1-.4-.5-.7-1-1-1.6-.2-.6-.4-1.2-.4-1.8v-33c-.1-.4-.3-.6-.6-.6s-.5.2-.6.6l-10,37.3c-.1.4-.4.7-.8.7h-8.3c-.4,0-.6-.2-.5-.7l10-37.2Z"/>
  </g>
</svg>